<?xml version="1.0" encoding="UTF-8"?>
<svg width="68px" height="68px" viewBox="0 0 68 68" version="1.1" xmlns="http://www.w3.org/2000/svg" xmlns:xlink="http://www.w3.org/1999/xlink">
    <title>Logo</title>
    <defs>
        <path d="M14.1013686,-5.69712169e-16 L27.8986314,5.69712169e-16 C32.8019845,-3.31019177e-16 34.5800588,0.510540861 36.3726514,1.46922987 C38.165244,2.42791888 39.5720811,3.83475604 40.5307701,5.62734863 C41.4894591,7.41994122 42,9.19801553 42,14.1013686 L42,25 L42,25 L25,42 L14.1013686,42 C9.19801553,42 7.41994122,41.4894591 5.62734863,40.5307701 C3.83475604,39.5720811 2.42791888,38.165244 1.46922987,36.3726514 C0.510540861,34.5800588 -3.06217299e-16,32.8019845 5.27026026e-16,27.8986314 L3.79808113e-16,14.1013686 C-2.20679451e-16,9.19801553 0.510540861,7.41994122 1.46922987,5.62734863 C2.42791888,3.83475604 3.83475604,2.42791888 5.62734863,1.46922987 C7.41994122,0.510540861 9.19801553,3.31019177e-16 14.1013686,-5.69712169e-16 Z" id="path-1"></path>
    </defs>
    <g id="Logo" stroke="none" stroke-width="1" fill="none" fill-rule="evenodd">
        <rect id="Rectangle" fill="#FFFFFF" fill-rule="nonzero" x="0" y="0" width="68" height="68"></rect>
        <g id="Icon" transform="translate(1.000000, 1.000000)">
            <g transform="translate(24.000000, 24.000000)" fill="#F34747" fill-rule="nonzero" id="Rectangle">
                <path d="M16.7147898,0 L27.8986314,-3.3712197e-16 C32.8019845,1.95877573e-16 34.5800588,0.510540861 36.3726514,1.46922987 C38.165244,2.42791888 39.5720811,3.83475604 40.5307701,5.62734863 C41.4894591,7.41994122 42,9.19801553 42,14.1013686 L42,27.8986314 C42,32.8019845 41.4894591,34.5800588 40.5307701,36.3726514 C39.5720811,38.165244 38.165244,39.5720811 36.3726514,40.5307701 C34.5800588,41.4894591 32.8019845,42 27.8986314,42 L14.1013686,42 C9.19801553,42 7.41994122,41.4894591 5.62734863,40.5307701 C3.83475604,39.5720811 2.42791888,38.165244 1.46922987,36.3726514 C0.510540861,34.5800588 -3.06217299e-16,32.8019845 5.27026026e-16,27.8986314 L0,16.8515713 L0,16.8515713 L16.7147898,0 Z" transform="translate(21.000000, 21.000000) rotate(-360.000000) translate(-21.000000, -21.000000) "></path>
            </g>
            <g>
                <mask id="mask-2" fill="white">
                    <use xlink:href="#path-1"></use>
                </mask>
                <use id="Rectangle" fill="#00DDB3" fill-rule="nonzero" transform="translate(21.000000, 21.000000) rotate(-360.000000) translate(-21.000000, -21.000000) " xlink:href="#path-1"></use>
            </g>
            <path d="M41.999,24 L42,27.8986314 C42,32.8019845 41.4894591,34.5800588 40.5307701,36.3726514 C39.5720811,38.165244 38.165244,39.5720811 36.3726514,40.5307701 C34.5800588,41.4894591 32.8019845,42 27.8986314,42 L24,42 L24,38.1013686 C24,33.1980155 24.5105409,31.4199412 25.4692299,29.6273486 C26.4279189,27.834756 27.834756,26.4279189 29.6273486,25.4692299 C31.4199412,24.5105409 33.1980155,24 38.1013686,24 L41.999,24 Z" id="Combined-Shape" fill="#333333" fill-rule="nonzero"></path>
        </g>
    </g>
</svg>